<?xml version="1.0" encoding="utf-8"?>
<!-- Generator: Adobe Illustrator 24.0.1, SVG Export Plug-In . SVG Version: 6.00 Build 0)  -->
<svg version="1.1" id="Layer_1" xmlns="http://www.w3.org/2000/svg" xmlns:xlink="http://www.w3.org/1999/xlink" x="0px" y="0px"
	 viewBox="0 0 572.9 361.3" style="enable-background:new 0 0 572.9 361.3;" xml:space="preserve">
<style type="text/css">
	.st0{fill:#0D6EFD;}
	.st1{fill:#FFFFFF;}
	.st2{fill:#FF6584;}
	.st3{opacity:0.4;fill:#0D6EFD;enable-background:new    ;}
	.st4{fill:#3F3D56;}
	.st5{fill:#CCCCCC;}
	.st6{fill:#F2F2F2;}
</style>
<path class="st0" d="M383.6,112.2c0,25.6-40,101.1-63,142.4c-4.8,8.7-15.8,11.8-24.4,7c-2.9-1.6-5.3-4-7-7
	c-23-41.2-63-116.7-63-142.4c0-35.9,35.2-65,78.7-65S383.6,76.3,383.6,112.2z"/>
<circle class="st1" cx="305.3" cy="111.5" r="42.9"/>
<circle class="st2" cx="126.5" cy="124.6" r="25.7"/>
<ellipse class="st0" cx="305" cy="309.4" rx="62.1" ry="4.8"/>
<circle class="st3" cx="106.7" cy="145" r="14.8"/>
<path class="st4" d="M452.2,221.2c-116.3-43.6-258.1-1.1-340,85.8c-0.5,0.5-0.9,1-1.4,1.5h-1.2c0.4-0.5,0.9-1,1.3-1.5
	C194.5,213.5,334.4,176.2,452.2,221.2z"/>
<path class="st4" d="M484,235.7c-10.3-5.5-20.9-10.3-31.8-14.5C463.1,225.3,473.7,230.1,484,235.7z"/>
<circle class="st3" cx="420.3" cy="176" r="16.2"/>
<path class="st4" d="M422.1,300.5c1.3,4.6,5.5,7.5,5.5,7.5s2.3-4.6,1-9.3c-1.3-4.6-5.5-7.5-5.5-7.5S420.9,295.9,422.1,300.5z"/>
<path class="st0" d="M424,299.6c3.4,3.3,3.9,8.5,3.9,8.5s-5.1-0.3-8.6-3.6c-3.4-3.3-3.9-8.5-3.9-8.5S420.5,296.2,424,299.6z"/>
<path class="st4" d="M77.3,236.2v7.1l-0.4,0.4v-7.6C77.1,236.2,77.2,236.2,77.3,236.2z"/>
<path class="st5" d="M100,307c-0.1,0.2-0.2,0.3-0.3,0.5H76.9v-71l0.4-0.4l3,3.4v-5h9.6v15.9l9.7,11l0.1,0.1c0.1,0.4,0.2,0.7,0.3,1.1
	c0,0,0,0,0,0c1.5,4.7,2.6,9.4,3.6,14.2C105.7,288.3,105.4,298.6,100,307z"/>
<rect x="78.8" y="275.4" class="st4" width="6.1" height="5.1"/>
<rect x="78.8" y="284.6" class="st4" width="6.1" height="5.1"/>
<path class="st4" d="M273.3,265.8l-3.1-5.1l28.5-24.5c21.1-10.2,46.5-7.2,73.4,0v7.1l-26.5,28.5L315,278L273.3,265.8z"/>
<path class="st5" d="M384.7,250.6c5.1-5.6,5.8-11,0-15.9h-9.6v5l-3-3.4l-24.5,24.5l-4.1,4.1l-5.1,20.4l9.2,22.4h46.9v-45.8
	L384.7,250.6z"/>
<path class="st6" d="M270.2,260.7h77.4v46.9h-77.4C260.8,297.4,265.7,278.9,270.2,260.7z"/>
<rect x="320.6" y="275.4" class="st4" width="16.3" height="14.3"/>
<rect x="299.7" y="274.9" class="st5" width="14.3" height="32.6"/>
<polygon class="st4" points="283.4,280 283.4,274.9 277.3,274.9 277.3,280 282.9,280 "/>
<polygon class="st4" points="282.9,284.1 277.3,284.1 277.3,289.2 283.4,289.2 283.4,284.1 "/>
<rect x="287.5" y="274.9" class="st4" width="6.1" height="5.1"/>
<rect x="287.5" y="284.1" class="st4" width="6.1" height="5.1"/>
<polygon class="st4" points="369.5,280.5 369.5,275.4 363.4,275.4 363.4,280.5 369,280.5 "/>
<polygon class="st4" points="369,284.6 363.4,284.6 363.4,289.7 369.5,289.7 369.5,284.6 "/>
<rect x="373.6" y="275.4" class="st4" width="6.1" height="5.1"/>
<rect x="373.6" y="284.6" class="st4" width="6.1" height="5.1"/>
<polygon class="st4" points="135.4,180.2 130.3,176.1 158.8,150.6 231.1,150.6 231.1,173.1 184.3,204.6 "/>
<path class="st5" d="M244.3,164.9v-13.8h-9.6v3.4l-3.6-3.9l-23.4,25.5l-9.2,6.1l-14.2,103.9l21.4,21.4h49.8
	c7.6-38.4,13.7-77.9,0-130.4L244.3,164.9z"/>
<path class="st6" d="M130.3,176.1h77.4v131.4h-77.4C121.8,256.5,117.7,209.1,130.3,176.1z"/>
<rect x="160.3" y="275.4" class="st5" width="14.3" height="32.1"/>
<polygon class="st4" points="145.1,284.6 145.1,279.5 138.9,279.5 138.9,284.6 144.5,284.6 "/>
<polygon class="st4" points="144.5,288.7 138.9,288.7 138.9,293.8 145.1,293.8 145.1,288.7 "/>
<rect x="149.1" y="279.5" class="st4" width="6.1" height="5.1"/>
<polygon class="st4" points="186.3,288.7 180.7,288.7 180.7,293.8 186.8,293.8 186.8,288.7 "/>
<rect x="190.9" y="279.5" class="st4" width="6.1" height="5.1"/>
<rect x="190.9" y="288.7" class="st4" width="6.1" height="5.1"/>
<polygon class="st4" points="229.6,182.7 229.6,177.6 223.5,177.6 223.5,182.7 229.1,182.7 "/>
<polygon class="st4" points="229.1,186.8 223.5,186.8 223.5,191.9 229.6,191.9 229.6,186.8 "/>
<rect x="233.7" y="177.6" class="st4" width="6.1" height="5.1"/>
<rect x="233.7" y="186.8" class="st4" width="6.1" height="5.1"/>
<polygon class="st4" points="229.6,211.3 229.6,206.2 223.5,206.2 223.5,211.3 229.1,211.3 "/>
<polygon class="st4" points="229.1,215.3 223.5,215.3 223.5,220.4 229.6,220.4 229.6,215.3 "/>
<rect x="233.7" y="206.2" class="st4" width="6.1" height="5.1"/>
<rect x="233.7" y="215.3" class="st4" width="6.1" height="5.1"/>
<polygon class="st4" points="229.6,239.8 229.6,234.7 223.5,234.7 223.5,239.8 229.1,239.8 "/>
<polygon class="st4" points="229.1,243.9 223.5,243.9 223.5,249 229.6,249 229.6,243.9 "/>
<rect x="233.7" y="234.7" class="st4" width="6.1" height="5.1"/>
<rect x="233.7" y="243.9" class="st4" width="6.1" height="5.1"/>
<polygon class="st4" points="229.6,268.3 229.6,263.2 223.5,263.2 223.5,268.3 229.1,268.3 "/>
<polygon class="st4" points="229.1,272.4 223.5,272.4 223.5,277.5 229.6,277.5 229.6,272.4 "/>
<rect x="233.7" y="263.2" class="st4" width="6.1" height="5.1"/>
<rect x="233.7" y="272.4" class="st4" width="6.1" height="5.1"/>
<path class="st4" d="M138.9,182.7H198V195c-18.9-5.2-38.7-4.9-59.1,0V182.7z"/>
<path class="st4" d="M138.9,207.2c18.4,5.4,38.1,5.4,59.1,0v12.2h-59.1V207.2z"/>
<path class="st4" d="M138.9,231.6H198v12.2c-20.1-6.4-39.9-6.7-59.1,0V231.6z"/>
<path class="st4" d="M138.9,256.1c19.3,7.4,39,7.1,59.1,0v12.2h-59.1V256.1z"/>
<path class="st4" d="M456.5,234.8h41.5v20l-3.7,1.2l-12.3,3.9l-19.4-4.5l-19.3-4.5l-10.2-2.4l-5.1-1.9
	C432.3,240.8,440,236.3,456.5,234.8z"/>
<path class="st6" d="M498.1,246.7v60.9h-70c0,0,0-0.1-0.1-0.1v0c0,0,0-0.1-0.1-0.1c-1.1-2.2-2.1-4.4-2.9-6.6
	c-7.4-18.5-6.6-36.6,3.1-54.1L498.1,246.7z"/>
<rect x="458.1" y="275.4" class="st5" width="14.3" height="32.1"/>
<polygon class="st4" points="442.8,284.6 442.8,279.5 436.7,279.5 436.7,284.6 442.3,284.6 "/>
<polygon class="st4" points="442.3,288.7 436.7,288.7 436.7,293.8 442.8,293.8 442.8,288.7 "/>
<rect x="446.9" y="279.5" class="st4" width="6.1" height="5.1"/>
<rect x="446.9" y="288.7" class="st4" width="6.1" height="5.1"/>
<polygon class="st4" points="484.6,284.6 484.6,279.5 478.5,279.5 478.5,284.6 484.1,284.6 "/>
<polygon class="st4" points="484.1,288.7 478.5,288.7 478.5,293.8 484.6,293.8 484.6,288.7 "/>
<rect x="488.6" y="279.5" class="st4" width="6.1" height="5.1"/>
<rect x="488.6" y="288.7" class="st4" width="6.1" height="5.1"/>
<path class="st4" d="M443.3,211.2h8.8c18,0,32.7,14.6,32.7,32.7l0,0h-41.4V211.2z"/>
<path class="st4" d="M177.4,122.5h8.8c18,0,32.7,14.6,32.7,32.7l0,0l0,0h-41.4V122.5z"/>
<path class="st4" d="M317.7,204.6h8.8c18,0,32.7,14.6,32.7,32.7l0,0h-41.4V204.6z"/>
<rect x="443.3" y="256.1" class="st4" width="41.4" height="12.2"/>
<rect x="76.9" y="307" class="st4" width="421.1" height="1.5"/>
<rect x="114.3" y="248.7" class="st4" width="1.5" height="58.4"/>
<path class="st0" d="M129.4,256.1c0.1,20.4-14.3,37-14.3,37s-18.4-16.8-14.6-36.9c3.8-20.2,15.7-36.9,14.3-37
	C114.8,219.2,129.3,235.7,129.4,256.1z"/>
<rect x="262.1" y="248.7" class="st4" width="1.5" height="58.4"/>
<path class="st0" d="M277.2,256.1c1.3,20.4-14.3,37-14.3,37s-14.5-16.5-14.6-36.9s14.3-37,14.3-37
	C261.2,224.8,276.1,239.6,277.2,256.1z"/>
<polygon class="st4" points="167.5,153.8 231.7,150.7 258.7,173.1 253.9,177.4 211.3,176.5 "/>
<path class="st4" d="M103.5,258.1l-3.5,3.1l-0.4,0.4l-0.9,0.8l-21.8-0.5v-25.8c-0.7-0.2-1.4-0.3-2.1-0.4l1.8-0.1l0.4,0.3l3.4,2.8
	l9.6,8l10.7,9L103.5,258.1z"/>
<polygon class="st4" points="307.9,238.8 372.1,235.6 399,258.1 394.3,262.4 351.6,261.4 "/>
</svg>
