<svg id="Layer_1" data-name="Layer 1" xmlns="http://www.w3.org/2000/svg" viewBox="0 0 574 479.78"><defs><style>.cls-1{fill:#5671b7;}.cls-2{fill:#fff;}.cls-3{fill:#403e56;}.cls-4{fill:#f3f3f3;}.cls-5{fill:#436db5;}.cls-6{fill:#ccc;}.cls-7{fill:#f9b6b7;}.cls-8{fill:#302e41;}.cls-9{fill:#9f626b;}.cls-10{fill:#f2f2f2;}.cls-11{fill:#010101;opacity:0.2;isolation:isolate;}</style></defs><title>partner</title><path class="cls-1" d="M665,569V468S704.37,539.63,665,569Z" transform="translate(-108.5 -89.25)"/><path class="cls-1" d="M667.43,569,593,500.69S672.4,520.12,667.43,569Z" transform="translate(-108.5 -89.25)"/><path class="cls-1" d="M126,460V561C86.63,531.63,126,460,126,460Z" transform="translate(-108.5 -89.25)"/><path class="cls-1" d="M198,492.69,123.57,561C118.6,512.12,198,492.69,198,492.69Z" transform="translate(-108.5 -89.25)"/><path class="cls-2" d="M407.25,201.47l-99.42,58.1a1.52,1.52,0,0,1-2.08-.54L241.81,149.64a1.52,1.52,0,0,1,.55-2.08l99.42-58.11a1.52,1.52,0,0,1,2.08.55l63.93,109.39A1.52,1.52,0,0,1,407.25,201.47Z" transform="translate(-108.5 -89.25)"/><path class="cls-3" d="M407.25,201.47l-99.42,58.1a1.52,1.52,0,0,1-2.08-.54L241.81,149.64a1.52,1.52,0,0,1,.55-2.08l99.42-58.11a1.52,1.52,0,0,1,2.08.55l63.93,109.39A1.52,1.52,0,0,1,407.25,201.47ZM242.67,148.09a.89.89,0,0,0-.33,1.24l63.93,109.39a.91.91,0,0,0,1.25.33l99.42-58.11a.91.91,0,0,0,.33-1.25L343.33,90.3a.9.9,0,0,0-1.24-.32Z" transform="translate(-108.5 -89.25)"/><path class="cls-4" d="M306.57,159l-24.65,14.41a1.52,1.52,0,0,1-2.08-.54l-14.42-24.66a1.53,1.53,0,0,1,.55-2.08l24.66-14.41a1.52,1.52,0,0,1,2.08.54l14.41,24.66A1.52,1.52,0,0,1,306.57,159Zm-40.29-12.35a.92.92,0,0,0-.33,1.25l14.41,24.66a.92.92,0,0,0,1.25.33l24.66-14.42a.9.9,0,0,0,.32-1.24l-14.41-24.66a.9.9,0,0,0-1.24-.33Z" transform="translate(-108.5 -89.25)"/><path class="cls-5" d="M301.25,166.14,276.6,180.55a1.37,1.37,0,0,1-1.87-.49L260.31,155.4a1.37,1.37,0,0,1,.49-1.87l24.66-14.41a1.37,1.37,0,0,1,1.87.49l14.41,24.65A1.37,1.37,0,0,1,301.25,166.14Z" transform="translate(-108.5 -89.25)"/><path class="cls-6" d="M360.77,147.54l-77.12,45.07a1.35,1.35,0,0,1-1.87-.49,1.37,1.37,0,0,1,.49-1.87h0l77.12-45.07a1.37,1.37,0,0,1,1.38,2.36Z" transform="translate(-108.5 -89.25)"/><path class="cls-6" d="M346.9,166.56l-58.5,34.19a1.37,1.37,0,1,1-1.38-2.36h0l58.5-34.19a1.35,1.35,0,0,1,1.87.49,1.37,1.37,0,0,1-.49,1.87Z" transform="translate(-108.5 -89.25)"/><path class="cls-6" d="M343,117.79l-34.1,19.93a1.37,1.37,0,1,1-1.38-2.36l34.1-19.93a1.35,1.35,0,0,1,1.87.49A1.37,1.37,0,0,1,343,117.79Z" transform="translate(-108.5 -89.25)"/><path class="cls-6" d="M339.27,130.89l-25.59,15a1.37,1.37,0,1,1-1.38-2.36h0l25.59-15a1.37,1.37,0,0,1,1.38,2.36Z" transform="translate(-108.5 -89.25)"/><path class="cls-6" d="M370.28,163.8l-77.13,45.08a1.37,1.37,0,1,1-1.38-2.36h0l77.13-45.08a1.37,1.37,0,0,1,1.38,2.36Z" transform="translate(-108.5 -89.25)"/><path class="cls-6" d="M356.41,182.82,297.91,217a1.37,1.37,0,1,1-1.38-2.36h0L355,180.46a1.37,1.37,0,0,1,1.38,2.36Z" transform="translate(-108.5 -89.25)"/><path class="cls-6" d="M379.78,180.07l-77.12,45.07a1.37,1.37,0,1,1-1.38-2.36h0l77.12-45.07a1.37,1.37,0,0,1,1.38,2.36Z" transform="translate(-108.5 -89.25)"/><path class="cls-6" d="M384.54,188.2l-77.13,45.07a1.35,1.35,0,0,1-1.87-.49,1.37,1.37,0,0,1,.49-1.87l77.13-45.07a1.37,1.37,0,1,1,1.38,2.36Z" transform="translate(-108.5 -89.25)"/><path class="cls-5" d="M359.6,219.86a30.22,30.22,0,0,0,2.88-4,10.55,10.55,0,0,0,1.67-4.16,4.08,4.08,0,0,0-1.23-3.51,2.88,2.88,0,0,0-3.39-.38,3.45,3.45,0,0,0-1.73,3.08,4.57,4.57,0,0,0,1.95,3.45c2.28,1.65,5.84,1.56,8.27.31,2.73-1.42,4.15-5.12,2-7.66-.45-.53-1.19.06-1.08.63a3.06,3.06,0,0,0,6.07-.75l-1,.57a7.39,7.39,0,0,0,7.34-.79,6.9,6.9,0,0,0,1.37-1.33,8.13,8.13,0,0,1,1.91-1.46l4.64-3.2c.68-.47,0-1.6-.65-1.12l-4.2,2.9c-.7.48-1.41,1-2.1,1.45a14.44,14.44,0,0,0-1.26,1.33,6.09,6.09,0,0,1-6.42,1.09.67.67,0,0,0-.89.26.66.66,0,0,0-.07.3,1.78,1.78,0,0,1-3.53.42l-1.08.63c1.39,1.64.47,4.14-1.13,5.24a7.36,7.36,0,0,1-6.44.68,3.81,3.81,0,0,1-2.24-2.05,2.26,2.26,0,0,1,.51-2.6,1.63,1.63,0,0,1,2.26,0,2.88,2.88,0,0,1,.77,2.62,10.52,10.52,0,0,1-1.59,3.61,29.38,29.38,0,0,1-2.58,3.59c-.54.63.39,1.55.93.91Z" transform="translate(-108.5 -89.25)"/><path class="cls-7" d="M413.79,368.47a6.15,6.15,0,0,1,.61.74l28.84-.7,3.37-6.15,9.94,3.86-4.9,11.47a4.65,4.65,0,0,1-4.84,2.79l-32.58-3.94a6.1,6.1,0,1,1-1-8.58,6.91,6.91,0,0,1,.57.51Z" transform="translate(-108.5 -89.25)"/><polygon class="cls-7" points="399.3 454.37 389.81 454.37 385.3 417.79 399.3 417.79 399.3 454.37"/><path class="cls-8" d="M510.22,552.81H479.64v-.38a11.9,11.9,0,0,1,11.9-11.9h18.68Z" transform="translate(-108.5 -89.25)"/><polygon class="cls-7" points="313.19 454.16 304.47 450.43 314.69 415.02 327.56 420.52 313.19 454.16"/><path class="cls-8" d="M420.31,552.81l-28.12-12,.15-.35A11.9,11.9,0,0,1,408,534.17h0l17.17,7.34Z" transform="translate(-108.5 -89.25)"/><polygon class="cls-7" points="353.2 287.15 352.52 298.26 372.56 300.4 393.54 302.65 387.36 285.78 353.2 287.15"/><path class="cls-8" d="M460.39,387.65l-7.79-54.29,13.5-4.42,4-5.43,19.29,1.14,2.84,6.34,10.28,4.86-1.58,29.36L502,389.77Z" transform="translate(-108.5 -89.25)"/><path class="cls-8" d="M455.49,373.1l-13.73-5.49.06-.25c.06-.24,5.9-24.66,6.68-28.58a6.85,6.85,0,0,1,3.88-5.27l.09,0,5.44,1.65,2.38,18.75Z" transform="translate(-108.5 -89.25)"/><path class="cls-8" d="M428.76,537l-18.28-3.74,29.21-80.6,10-27.49s6.35-22,9.21-30.57l1.73-11.44,40.92,4.53s11.43,16.78,8,44.14l1.57,102.83-18.28.94-15.3-103.71-26.87,56.85S442.15,513,436.1,518.23Z" transform="translate(-108.5 -89.25)"/><path class="cls-7" d="M485.13,391.48a6.18,6.18,0,0,1,1,0l19.09-21.63L503,363.25l9.6-4.66L517.63,370a4.65,4.65,0,0,1-1.24,5.44l-25,21.22a6.11,6.11,0,1,1-7-5.09,4.88,4.88,0,0,1,.76-.07Z" transform="translate(-108.5 -89.25)"/><path class="cls-8" d="M503.66,372l-8-18.74,3.11-13,3.35-4.23a1.94,1.94,0,0,1,1.55,0c1.23.5,2.28,2,3.12,4.53l7.46,21.26Z" transform="translate(-108.5 -89.25)"/><path class="cls-8" d="M462.34,316.56V302.44a18.93,18.93,0,0,1,37.85,0v14.12a2.55,2.55,0,0,1-2.54,2.55H464.88A2.55,2.55,0,0,1,462.34,316.56Z" transform="translate(-108.5 -89.25)"/><circle class="cls-7" cx="368.88" cy="215.66" r="13.87"/><path class="cls-8" d="M457.86,303.57a15,15,0,0,1,15-15h2.83a15,15,0,0,1,15,15v.28h-6l-2-5.7-.4,5.7h-3.09l-1-2.87-.2,2.87h-20Z" transform="translate(-108.5 -89.25)"/><path class="cls-8" d="M476,320.69a2.49,2.49,0,0,1-.2-2.65c3-5.7,7.19-16.22,1.62-22.7l-.4-.47h16.15v24.24l-14.67,2.59a2.28,2.28,0,0,1-.45,0A2.53,2.53,0,0,1,476,320.69Z" transform="translate(-108.5 -89.25)"/><polygon class="cls-9" points="179.13 446.38 187.7 449.44 203.59 417.85 190.94 413.32 179.13 446.38"/><path class="cls-8" d="M282.48,543.15l4-11.1,16.88,6a11.43,11.43,0,0,1,6.91,14.6l-.12.35Z" transform="translate(-108.5 -89.25)"/><polygon class="cls-9" points="234.86 454.86 243.96 454.86 248.29 419.75 234.85 419.75 234.86 454.86"/><path class="cls-8" d="M341,541.13H359a11.42,11.42,0,0,1,11.42,11.42h0v.37H341Z" transform="translate(-108.5 -89.25)"/><path class="cls-10" d="M322.62,319.84l3.95-7.82s14.75,3.69,16.09,12.24Z" transform="translate(-108.5 -89.25)"/><polygon class="cls-8" points="197.78 320.02 208.55 380.08 179.97 430.62 197.04 437.3 225.99 388.31 229.7 374.95 231.93 444.73 247.33 444.26 254.39 379.1 243.07 318.53 197.78 320.02"/><path class="cls-3" d="M326.72,423.46c-15.81,0-25.85-3-26.08-3.07l-.36-.08,8.23-38.18.37-35.22c0-14.93,9.83-25.93,11.19-27a6.47,6.47,0,0,1,3.42-4.2c3.27-1.48,7.28.3,7.45.38l12,4.5.06.17c.15.43,16,52.39,16,52.39s-1,45.41-1.3,46.9C357.69,420.1,335.5,423.46,326.72,423.46Z" transform="translate(-108.5 -89.25)"/><circle class="cls-9" cx="232.37" cy="208.07" r="16.24"/><polygon class="cls-11" points="212.25 260.54 240.67 300.19 244.87 281.68 212.25 260.54"/><path class="cls-9" d="M409.85,376.76a7,7,0,0,1-10.46-2.16l-24.46,3.91,5.3-11.73,22.41-1.92a7,7,0,0,1,7.21,11.9Z" transform="translate(-108.5 -89.25)"/><polygon class="cls-10" points="272.99 276.87 281.77 276 284.21 288.26 273.15 288.46 272.99 276.87"/><path class="cls-3" d="M388.69,381.78l-43-3.83-21.74-34.57-.07-.3a11.9,11.9,0,0,1,22.22-8L358.82,360l25.75,3.89Z" transform="translate(-108.5 -89.25)"/><path class="cls-8" d="M327,311.42l13.48.48c.83,0,3.06-8.84,3.35-10.68a5,5,0,0,1,5.24-4.06c1,.09,3.55-1.79,6.18-4a9.92,9.92,0,0,0-.75-15.79l-.44-.26a24,24,0,0,0-11.46-2.64,21.45,21.45,0,0,0-10.44,2.11c-5.67,3.05-8.69,9.7-8.95,16.13s1.79,12.72,4.13,18.71" transform="translate(-108.5 -89.25)"/></svg>